<svg xmlns="http://www.w3.org/2000/svg" viewBox="0 0 256 256">
  <rect width="256" height="256" rx="40" fill="#0F0A2E"/>
  <path d="M30,128 C30,72 74,46 128,46 C182,46 226,72 226,128
           C226,184 182,210 128,210 C74,210 30,184 30,128 Z"
        fill="none" stroke="#FFFFFF" stroke-width="11" stroke-linejoin="round"/>
  <path d="M30,128 C30,72 74,46 128,46 C182,46 226,72 226,128
           C226,184 182,210 128,210 C74,210 30,184 30,128 Z"
        fill="#FFFFFF" fill-opacity="0.04"/>
  <circle cx="128" cy="128" r="50" fill="#0F0A2E" stroke="#00E5FF" stroke-width="7"/>
  <circle cx="128" cy="128" r="36" fill="none" stroke="#00E5FF" stroke-width="1.5" opacity="0.40"/>
  <circle cx="128" cy="128" r="22" fill="none" stroke="#00E5FF" stroke-width="1.5" opacity="0.60"/>
  <circle cx="128" cy="128" r="9" fill="#00E5FF"/>
  <ellipse cx="113" cy="110" rx="7" ry="5" fill="#FFFFFF" opacity="0.18" transform="rotate(-30 113 110)"/>
</svg>
